Coordinates
version=1
nRows=5
nColumns=46
inDegrees=yes

Units are S.I. units (second, meters, Newtons, ...)
Angles are in degrees.

endheader
time	pelvis_tilt	pelvis_list	pelvis_rotation	pelvis_tx	pelvis_ty	pelvis_tz	bb_angle	bb_tx	bb_ty	bb_tz	hip_flexion_r	hip_adduction_r	hip_rotation_r	knee_angle_r	knee_angle_r_beta	ankle_angle_r	subtalar_angle_r	mtp_angle_r	crank_angle_r	hip_flexion_l	hip_adduction_l	hip_rotation_l	knee_angle_l	knee_angle_l_beta	ankle_angle_l	subtalar_angle_l	mtp_angle_l	crank_angle_l	lumbar_extension	lumbar_bending	lumbar_rotation	arm_flex_r	arm_add_r	arm_rot_r	elbow_flex_r	pro_sup_r	wrist_flex_r	wrist_dev_r	arm_flex_l	arm_add_l	arm_rot_l	elbow_flex_l	pro_sup_l	wrist_flex_l	wrist_dev_l
      5.00500000	    -26.76261375	      6.60085920	      1.86223740	      0.38199483	      1.11231571	     -0.24956193	      0.00000000	      0.50000000	      0.00000000	      0.25000000	     50.28362407	     -6.40205805	      5.21922620	     70.16510898	      1.22461217	    -19.60365253	    -11.97127492	      0.00000000	      0.00000000	     65.85215872	     -5.69889971	     -3.45179984	     64.73957273	      1.12991870	      5.80258454	     -4.12295639	      0.00000000	      0.00000000	    -70.50849812	     -4.16379599	    -10.90100254	     62.79437181	     -7.15670481	     28.77168956	     88.61179035	     47.75837868	      0.00000000	      0.00000000	     52.67947741	    -34.27431377	     12.54680829	    111.55509419	     49.41342383	      0.00000000	      0.00000000
      5.01000000	    -26.38560613	      6.13289857	      1.69102857	      0.38224226	      1.11071660	     -0.24966720	      0.00000000	      0.50000000	      0.00000000	      0.25000000	     50.85486760	     -5.66728211	      5.34475959	     72.28405616	      1.26159478	    -19.31309001	    -12.31422563	      0.00000000	      0.00000000	     64.81105302	     -6.02764835	     -3.27257246	     63.41339256	      1.10677249	      5.21001456	     -3.87667205	      0.00000000	      0.00000000	    -70.50350815	     -4.13348768	    -10.41761032	     62.62145443	     -7.12457892	     28.77250135	     88.54222147	     47.74896096	      0.00000000	      0.00000000	     52.42044346	    -34.26643687	     12.55012113	    111.59679629	     49.41982038	      0.00000000	      0.00000000
      5.01500000	    -26.01695548	      5.86062281	      1.34533982	      0.38245721	      1.10885069	     -0.24946207	      0.00000000	      0.50000000	      0.00000000	      0.25000000	     51.50943530	     -4.97176090	      5.64517523	     74.51185604	      1.30047722	    -18.53478875	    -12.78293433	      0.00000000	      0.00000000	     63.73146923	     -6.47943133	     -3.44085631	     62.12758378	      1.08433089	      4.47581345	     -3.67551416	      0.00000000	      0.00000000	    -70.38935841	     -4.40883652	    -10.10562429	     62.32749466	     -7.20006541	     28.70202300	     88.42324212	     47.72558719	      0.00000000	      0.00000000	     51.91888321	    -34.10704196	     12.57635018	    111.64413321	     49.42872768	      0.00000000	      0.00000000
      5.02000000	    -25.73404116	      5.65051284	      0.96680354	      0.38273007	      1.10686278	     -0.24922376	      0.00000000	      0.50000000	      0.00000000	      0.25000000	     52.29586664	     -4.27024938	      6.08365909	     76.72455258	      1.33909606	    -17.96052263	    -12.86337982	      0.00000000	      0.00000000	     62.67162559	     -6.87646887	     -3.63616393	     60.80209240	      1.06119670	      3.82397968	     -3.44922023	      0.00000000	      0.00000000	    -70.29315067	     -4.75302210	     -9.84676117	     61.87767391	     -7.26833735	     28.57820392	     88.25508447	     47.69099706	      0.00000000	      0.00000000	     51.37176743	    -33.86353122	     12.51219468	    111.67734829	     49.41989634	      0.00000000	      0.00000000
      5.02500000	    -25.38564599	      5.28063581	      0.67270633	      0.38287626	      1.10479622	     -0.24909330	      0.00000000	      0.50000000	      0.00000000	      0.25000000	     52.96507845	     -3.54703201	      6.24258289	     78.88566190	      1.37681453	    -17.26195201	    -13.13063865	      0.00000000	      0.00000000	     61.61323162	     -7.28423346	     -3.70896692	     59.54638244	      1.03928043	      3.15834869	     -3.34845289	      0.00000000	      0.00000000	    -70.13494819	     -4.91905926	     -9.43618104	     61.60446655	     -7.29781980	     28.52183414	     88.14726578	     47.67121184	      0.00000000	      0.00000000	     50.94384845	    -33.74712095	     12.44516542	    111.69703873	     49.41259866	      0.00000000	      0.00000000
